<?xml version="1.0" standalone="no"?>
<!DOCTYPE svg PUBLIC "-//W3C//DTD SVG 20010904//EN"
 "http://www.w3.org/TR/2001/REC-SVG-20010904/DTD/svg10.dtd">
<svg version="1.0" xmlns="http://www.w3.org/2000/svg"
 width="50.000000pt" height="48.000000pt" viewBox="0 0 50.000000 48.000000"
 preserveAspectRatio="xMidYMid meet">
<metadata>
Created by potrace 1.16, written by Peter Selinger 2001-2019
</metadata>
<g transform="translate(0.000000,48.000000) scale(0.100000,-0.100000)"
fill="#000000" stroke="none">
<path d="M0 240 l0 -240 250 0 250 0 0 240 0 240 -250 0 -250 0 0 -240z m350
165 c0 -33 -2 -35 -35 -35 -34 0 -35 -1 -35 -40 0 -39 1 -40 33 -40 32 0 33
-1 29 -35 -4 -31 -8 -35 -33 -35 l-29 0 0 -90 0 -90 -40 0 -40 0 0 90 0 90
-30 0 c-28 0 -30 3 -30 35 0 32 3 35 29 35 27 0 29 3 34 53 8 68 39 97 103 97
44 0 44 0 44 -35z"/>
</g>
</svg>
