<?xml version="1.0" standalone="no"?>
<!DOCTYPE svg PUBLIC "-//W3C//DTD SVG 20010904//EN"
 "http://www.w3.org/TR/2001/REC-SVG-20010904/DTD/svg10.dtd">
<svg version="1.0" xmlns="http://www.w3.org/2000/svg"
 width="56.000000pt" height="56.000000pt" viewBox="0 0 56.000000 56.000000"
 preserveAspectRatio="xMidYMid meet">
<metadata>
Created by potrace 1.16, written by Peter Selinger 2001-2019
</metadata>
<g transform="translate(0.000000,56.000000) scale(0.100000,-0.100000)"
fill="#000000" stroke="none">
<path d="M0 280 l0 -280 280 0 280 0 0 280 0 280 -280 0 -280 0 0 -280z m451
209 c36 -24 49 -80 49 -209 0 -129 -13 -185 -49 -209 -37 -24 -305 -24 -342 1
-39 25 -51 85 -47 229 5 199 18 210 233 206 102 -1 137 -6 156 -18z"/>
<path d="M139 463 c-30 -8 -39 -51 -39 -184 0 -131 8 -169 35 -169 8 0 15 -4
15 -10 0 -6 50 -10 130 -10 80 0 130 4 130 10 0 6 7 10 15 10 27 0 35 38 35
169 0 138 -9 176 -44 185 -24 6 -252 6 -277 -1z m186 -69 c34 -9 65 -65 65
-116 0 -48 -28 -98 -56 -98 -8 0 -14 -4 -14 -10 0 -5 -18 -10 -40 -10 -22 0
-40 5 -40 10 0 6 -6 10 -14 10 -28 0 -56 50 -56 98 0 48 31 108 60 116 23 6
73 6 95 0z"/>
<path d="M244 346 c-54 -24 -55 -105 -2 -132 38 -20 95 -3 108 32 15 38 1 83
-31 99 -34 18 -36 18 -75 1z"/>
</g>
</svg>
