<?xml version="1.0" standalone="no"?>
<!DOCTYPE svg PUBLIC "-//W3C//DTD SVG 20010904//EN"
 "http://www.w3.org/TR/2001/REC-SVG-20010904/DTD/svg10.dtd">
<svg version="1.0" xmlns="http://www.w3.org/2000/svg"
 width="33.000000pt" height="32.000000pt" viewBox="0 0 33.000000 32.000000"
 preserveAspectRatio="xMidYMid meet">
<metadata>
Created by potrace 1.16, written by Peter Selinger 2001-2019
</metadata>
<g transform="translate(0.000000,32.000000) scale(0.100000,-0.100000)"
fill="#000000" stroke="none">
<path d="M0 160 l0 -160 165 0 165 0 0 160 0 160 -165 0 -165 0 0 -160z m310
71 c0 -14 -12 -56 -33 -114 -14 -39 -70 -85 -114 -93 -23 -4 -52 -2 -77 7 -47
17 -60 39 -22 39 31 0 31 0 6 45 -21 37 -27 109 -10 120 6 3 22 -2 38 -13 45
-32 61 -33 73 -9 17 32 28 37 86 34 38 -1 53 -6 53 -16z"/>
<path d="M202 218 c-7 -7 -12 -20 -12 -30 0 -23 -39 -24 -80 -3 -27 14 -44 5
-20 -10 8 -5 8 -11 0 -20 -9 -10 -7 -16 9 -24 12 -7 18 -17 15 -26 -4 -9 0
-15 10 -15 21 0 20 -16 -1 -29 -14 -8 -10 -10 22 -11 58 0 103 39 120 105 11
44 10 51 -4 62 -21 16 -44 16 -59 1z"/>
</g>
</svg>
